<svg width="40" height="40" viewBox="0 0 40 40" fill="none" xmlns="http://www.w3.org/2000/svg">
  <!-- Rounded rectangular frame in dark blue -->
  <rect x="2" y="2" width="36" height="36" rx="6" fill="none" stroke="#1e40af" stroke-width="1.5"/>
  
  <!-- Upper section: White background -->
  <path d="M 4 4 L 36 4 L 36 24 Q 30 20, 24 22 Q 18 24, 12 22 Q 8 22, 4 20 Z" fill="white"/>
  
  <!-- Wavy dividing line (white) -->
  <path d="M 4 22 Q 10 18, 16 20 Q 20 21, 24 20 Q 28 19, 32 20 Q 36 21, 36 22" stroke="white" stroke-width="2" fill="none"/>
  
  <!-- Sun/Moon: Dark blue circle with black center -->
  <circle cx="20" cy="14" r="5" fill="#1e40af"/>
  <circle cx="20" cy="14" r="2.5" fill="black"/>
  
  <!-- Lower section: Dark blue background -->
  <path d="M 4 22 Q 10 18, 16 20 Q 20 21, 24 20 Q 28 19, 32 20 Q 36 21, 36 22 L 36 36 L 4 36 Z" fill="#1e40af"/>
  
  <!-- Black wavy lines in lower section -->
  <path d="M 6 28 Q 10 26, 14 27.5 Q 18 29, 22 27.5 Q 26 26, 30 27.5 Q 34 29, 34 28" stroke="black" stroke-width="1.5" fill="none"/>
  <path d="M 6 32 Q 10 30, 14 31.5 Q 18 33, 22 31.5 Q 26 30, 30 31.5 Q 34 33, 34 32" stroke="black" stroke-width="1.5" fill="none"/>
</svg>
